<svg xmlns="http://www.w3.org/2000/svg" viewBox="0 0 79.31 67.91"><defs><style>.cls-1{fill:#300;}.cls-2{fill:#ec6a89;}.cls-3{fill:#e76b86;}</style></defs><g id="レイヤー_2" data-name="レイヤー 2"><g id="レイヤー_1-2" data-name="レイヤー 1"><g id="c-t-kemono"><path class="cls-1" d="M2.8,34.94V13H5.85Q4.19,9.13,1.62,3.38L6.25,1.62Q8.93,7,10.78,11.77L7.13,13H28.54A76.23,76.23,0,0,0,34.75.44l5.44,1.47A125.94,125.94,0,0,1,33.87,13H38v22ZM31,64.07H8.61v2.46H3.46V48.25h32.8V66.46H31ZM18.13,22.14V16.59H7.94v5.55Zm0,9.05v-5.7H7.94v5.7Zm-9.52,29H31V52.08H8.61Zm11-48.25L15.78,1.47,20.37,0a110.7,110.7,0,0,1,3.94,10.45Zm3.53,4.67v5.55h9.6V16.59Zm0,8.9v5.7h9.6v-5.7Z"/><rect class="cls-2" y="39.65" width="40.19" height="3.97"/><path class="cls-1" d="M64.54,17.14a100.51,100.51,0,0,0-4.23-11l4.56-1.47a86.22,86.22,0,0,1,4.46,11Z"/><path class="cls-1" d="M58,25.05A76.87,76.87,0,0,0,62.5,45.64a59.52,59.52,0,0,0,9.36,17.51l-3.78,3.67q-2.73-3.19-6.66-11.1a72.35,72.35,0,0,1-6-19.46,67.81,67.81,0,0,1-5,16.53A49.32,49.32,0,0,1,41.12,67L38,63.84a52.71,52.71,0,0,0,8.66-14.47q3.83-9.06,5-24.32l.25-4.31V.55h5.67V20.74Z"/><rect class="cls-2" x="41.41" y="20.74" width="28.28" height="4.3"/><path class="cls-3" d="M73.69,60c-.11.17-.22.34-.32.51h1c-.21-.21-.42-.42-.64-.61Z"/><path class="cls-3" d="M71.17,54.2l-.24.32a2.86,2.86,0,0,0-.61,1.26.45.45,0,0,0,.06.38.64.64,0,0,0,.2.08.71.71,0,0,0,.46,0,.91.91,0,0,0,.38-.57,3.55,3.55,0,0,0,0-1.83C71.36,54,71.26,54.08,71.17,54.2Z"/><path class="cls-3" d="M79.14,58.15a8.46,8.46,0,0,1-2.45-.27,1.7,1.7,0,0,1-.64-.26,2.38,2.38,0,0,1-.65-1.29,9.58,9.58,0,0,0-3.56-4.55c-1.56-1.17-3.31-2.08-5-3.23a1.31,1.31,0,0,0-.25,1.19,15.32,15.32,0,0,1-4.43-1.53.23.23,0,0,0-.21,0,.21.21,0,0,0-.12.15c-.18.55.21,1.11.58,1.56a9.25,9.25,0,0,1-3-.58c-.18-.07-.42-.13-.54,0a.37.37,0,0,0-.07.25,2.65,2.65,0,0,0,.48,1.61,15,15,0,0,1-3.89.45A4.84,4.84,0,0,0,55.87,54a10.59,10.59,0,0,0-1.15,1.17,3,3,0,0,1-.27-2.44.46.46,0,0,0,0-.23.7.7,0,0,0,.16-.1A1.67,1.67,0,0,0,55,51.8a7.44,7.44,0,0,0,.5-2.23.55.55,0,0,0,0-.18c-.07-.18-.31-.21-.51-.21a13.93,13.93,0,0,0-1.44.1.63.63,0,0,0-.32.12.56.56,0,0,0-.14.31,4.17,4.17,0,0,0,.33,2.16,1.67,1.67,0,0,0,.2.45.43.43,0,0,0,.09.1.09.09,0,0,0,0,.06,3.8,3.8,0,0,0,.51,3.41,9.8,9.8,0,0,0-.74,10,2.52,2.52,0,0,0,.75,1,1,1,0,0,0,1.17,0,7.41,7.41,0,0,0,.57-2.29,6.43,6.43,0,0,1,.72-1.9,21.48,21.48,0,0,0,3.72,4.66.48.48,0,0,0,.32.18c.33,0,.37-.48.3-.81a7.48,7.48,0,0,1,.11-3.52,12.06,12.06,0,0,0,3.49,1.21,3.08,3.08,0,0,0,2.06-.15l-.87,3a.35.35,0,0,0,0,.36.32.32,0,0,0,.21.06,4.09,4.09,0,0,0,3.47-1.77l.85,1.71a.6.6,0,0,0,.24.3c.26.11.5-.19.62-.44a8.38,8.38,0,0,0,.71-4.16,14.26,14.26,0,0,0,3.06.18,2.31,2.31,0,0,0,1.66-.58c.49-.54.57-1.54,1.29-1.71.43-.1,1,.15,1.26-.23a.78.78,0,0,0,.1-.36A8.67,8.67,0,0,0,79.14,58.15Zm-7.81-1.22a1.19,1.19,0,0,1-.47.09A2,2,0,0,1,70.4,57a1.31,1.31,0,0,1-.5-.23,1.16,1.16,0,0,1-.33-1.07,3.48,3.48,0,0,1,.76-1.59c.08-.12.17-.23.25-.34a6.64,6.64,0,0,0,.64-.92.37.37,0,0,1,.35-.2.37.37,0,0,1,.32.24,6.55,6.55,0,0,1,.25.67,4.17,4.17,0,0,1,0,2.35A1.5,1.5,0,0,1,71.33,56.93Zm1.14-.2a.38.38,0,0,1,.45.28.65.65,0,0,0,.59.48.66.66,0,0,0,.62-.44.37.37,0,1,1,.71.22,1.38,1.38,0,0,1-1.31,1h0a1.38,1.38,0,0,1-1.29-1A.38.38,0,0,1,72.47,56.73Zm4.2,4.6h0c-1.16,0-1.9,0-2.84,0H72.74a.41.41,0,0,1-.32-.18.38.38,0,0,1,0-.36,10.15,10.15,0,0,1,.66-1.11l.23-.37a.45.45,0,0,1,.29-.22.46.46,0,0,1,.4.11,11.48,11.48,0,0,1,1.36,1.34.35.35,0,0,1,0,.08h1.28a.37.37,0,1,1,0,.74Zm1.07-2.16a2.42,2.42,0,0,0-.07.73.38.38,0,0,1-.37.38h0a.37.37,0,0,1-.37-.36A3.37,3.37,0,0,1,77,59l0-.17a.36.36,0,0,1,.43-.29.37.37,0,0,1,.3.44Z"/></g></g></g></svg>