<svg style="visibility: hidden; position: absolute; top: 0; left: 0;" aria-hidden="true" xmlns="http://www.w3.org/2000/svg" xmlns:xlink="http://www.w3.org/1999/xlink"><symbol viewBox="0 0 79.31 67.91" id="i-c-t-kemono" xmlns="http://www.w3.org/2000/svg"><defs><style>.acls-1{fill:#300}.acls-2{fill:#ec6a89}.acls-3{fill:#e76b86}</style></defs><path class="acls-1" d="M2.8 34.94V13h3.05Q4.19 9.13 1.62 3.38l4.63-1.76Q8.93 7 10.78 11.77L7.13 13h21.41A76.23 76.23 0 0 0 34.75.44l5.44 1.47A125.94 125.94 0 0 1 33.87 13H38v22ZM31 64.07H8.61v2.46H3.46V48.25h32.8v18.21H31ZM18.13 22.14v-5.55H7.94v5.55Zm0 9.05v-5.7H7.94v5.7Zm-9.52 29H31v-8.11H8.61Zm11-48.25L15.78 1.47 20.37 0a110.7 110.7 0 0 1 3.94 10.45Zm3.53 4.67v5.55h9.6v-5.57Zm0 8.9v5.7h9.6v-5.7Z"/><path class="acls-2" d="M0 39.65h40.19v3.97H0z"/><path class="acls-1" d="M64.54 17.14a100.51 100.51 0 0 0-4.23-11l4.56-1.47a86.22 86.22 0 0 1 4.46 11ZM58 25.05a76.87 76.87 0 0 0 4.5 20.59 59.52 59.52 0 0 0 9.36 17.51l-3.78 3.67q-2.73-3.19-6.66-11.1a72.35 72.35 0 0 1-6-19.46 67.81 67.81 0 0 1-5 16.53A49.32 49.32 0 0 1 41.12 67L38 63.84a52.71 52.71 0 0 0 8.66-14.47q3.83-9.06 5-24.32l.25-4.31V.55h5.67v20.19Z"/><path class="acls-2" d="M41.41 20.74h28.28v4.3H41.41z"/><path class="acls-3" d="M73.69 60c-.11.17-.22.34-.32.51h1c-.21-.21-.42-.42-.64-.61ZM71.17 54.2l-.24.32a2.86 2.86 0 0 0-.61 1.26.45.45 0 0 0 .06.38.64.64 0 0 0 .2.08.71.71 0 0 0 .46 0 .91.91 0 0 0 .38-.57 3.55 3.55 0 0 0 0-1.83c-.06.16-.16.24-.25.36Z"/><path class="acls-3" d="M79.14 58.15a8.46 8.46 0 0 1-2.45-.27 1.7 1.7 0 0 1-.64-.26 2.38 2.38 0 0 1-.65-1.29 9.58 9.58 0 0 0-3.56-4.55c-1.56-1.17-3.31-2.08-5-3.23a1.31 1.31 0 0 0-.25 1.19 15.32 15.32 0 0 1-4.43-1.53.23.23 0 0 0-.21 0 .21.21 0 0 0-.12.15c-.18.55.21 1.11.58 1.56a9.25 9.25 0 0 1-3-.58c-.18-.07-.42-.13-.54 0a.37.37 0 0 0-.07.25 2.65 2.65 0 0 0 .48 1.61 15 15 0 0 1-3.89.45 4.84 4.84 0 0 0 .48 2.35 10.59 10.59 0 0 0-1.15 1.17 3 3 0 0 1-.27-2.44.46.46 0 0 0 0-.23.7.7 0 0 0 .16-.1 1.67 1.67 0 0 0 .39-.6 7.44 7.44 0 0 0 .5-2.23.55.55 0 0 0 0-.18c-.07-.18-.31-.21-.51-.21a13.93 13.93 0 0 0-1.44.1.63.63 0 0 0-.32.12.56.56 0 0 0-.14.31 4.17 4.17 0 0 0 .33 2.16 1.67 1.67 0 0 0 .2.45.43.43 0 0 0 .09.1.09.09 0 0 0 0 .06 3.8 3.8 0 0 0 .51 3.41 9.8 9.8 0 0 0-.74 10 2.52 2.52 0 0 0 .75 1 1 1 0 0 0 1.17 0 7.41 7.41 0 0 0 .57-2.29 6.43 6.43 0 0 1 .72-1.9 21.48 21.48 0 0 0 3.72 4.66.48.48 0 0 0 .32.18c.33 0 .37-.48.3-.81a7.48 7.48 0 0 1 .11-3.52 12.06 12.06 0 0 0 3.49 1.21 3.08 3.08 0 0 0 2.06-.15l-.87 3a.35.35 0 0 0 0 .36.32.32 0 0 0 .21.06 4.09 4.09 0 0 0 3.47-1.77l.85 1.71a.6.6 0 0 0 .24.3c.26.11.5-.19.62-.44a8.38 8.38 0 0 0 .71-4.16 14.26 14.26 0 0 0 3.06.18 2.31 2.31 0 0 0 1.66-.58c.49-.54.57-1.54 1.29-1.71.43-.1 1 .15 1.26-.23a.78.78 0 0 0 .1-.36 8.67 8.67 0 0 0-.15-2.48Zm-7.81-1.22a1.19 1.19 0 0 1-.47.09 2 2 0 0 1-.46-.02 1.31 1.31 0 0 1-.5-.23 1.16 1.16 0 0 1-.33-1.07 3.48 3.48 0 0 1 .76-1.59c.08-.12.17-.23.25-.34a6.64 6.64 0 0 0 .64-.92.37.37 0 0 1 .35-.2.37.37 0 0 1 .32.24 6.55 6.55 0 0 1 .25.67 4.17 4.17 0 0 1 0 2.35 1.5 1.5 0 0 1-.81 1.02Zm1.14-.2a.38.38 0 0 1 .45.28.65.65 0 0 0 .59.48.66.66 0 0 0 .62-.44.37.37 0 1 1 .71.22 1.38 1.38 0 0 1-1.31 1 1.38 1.38 0 0 1-1.29-1 .38.38 0 0 1 .23-.54Zm4.2 4.6H72.74a.41.41 0 0 1-.32-.18.38.38 0 0 1 0-.36 10.15 10.15 0 0 1 .66-1.11l.23-.37a.45.45 0 0 1 .29-.22.46.46 0 0 1 .4.11 11.48 11.48 0 0 1 1.36 1.34.35.35 0 0 1 0 .08h1.28a.37.37 0 1 1 0 .74Zm1.07-2.16a2.42 2.42 0 0 0-.07.73.38.38 0 0 1-.37.38.37.37 0 0 1-.37-.36A3.37 3.37 0 0 1 77 59v-.17a.36.36 0 0 1 .43-.29.37.37 0 0 1 .3.44Z"/></symbol><symbol viewBox="0 0 8.89 16" id="i-facebook" xmlns="http://www.w3.org/2000/svg"><path d="M8.89 2.78H6.35c-.3 0-.64.4-.64.92v1.84h3.18l-.48 2.61h-2.7V16h-3V8.15H0V5.54h2.72V4a3.77 3.77 0 0 1 3.63-4h2.54Z"/></symbol><symbol viewBox="0 0 32 31.81" id="i-facebook-circle" xmlns="http://www.w3.org/2000/svg"><path d="M18.5 31.81V20.62h3.73l.71-4.62H18.5v-3a2.31 2.31 0 0 1 2.61-2.5h2V6.56a25 25 0 0 0-3.59-.31c-3.65 0-6 2.21-6 6.23V16H9.44v4.62h4.06v11.19a16 16 0 1 1 5 0Z"/></symbol><symbol fill="none" viewBox="0 0 36 36" id="i-favicon" xmlns="http://www.w3.org/2000/svg"><path fill="#000" d="M22.25 4h-8.5a1 1 0 0 0-.96.73l-5.54 19.4a.5.5 0 0 0 .62.62l5.05-1.44a2 2 0 0 0 1.38-1.4l3.22-11.66a.5.5 0 0 1 .96 0l3.22 11.67a2 2 0 0 0 1.38 1.39l5.05 1.44a.5.5 0 0 0 .62-.62l-5.54-19.4a1 1 0 0 0-.96-.73Z"/><path fill="url(#svg-sprite-dgradient)" d="M18 28a7.63 7.63 0 0 1-5-2c-1.4 2.1-.35 4.35.6 5.55.14.17.41.07.47-.15.44-1.8 2.93-1.22 2.93.6 0 2.28.87 3.4 1.72 3.81.34.16.59-.2.49-.56-.31-1.05-.29-2.46 1.29-3.25 3-1.5 3.17-4.83 2.5-6-.67.67-2.6 2-5 2Z"/><defs><linearGradient id="svg-sprite-dgradient" x1="16" x2="16" y1="32" y2="24" gradientUnits="userSpaceOnUse"><stop/><stop offset="1" stop-opacity="0"/></linearGradient></defs><style>@media (prefers-color-scheme:dark){::rootfilter:invert(100%)}}</style></symbol><symbol viewBox="0 0 15.99 16" id="i-instagram" xmlns="http://www.w3.org/2000/svg"><path d="M8 1.44c2.14 0 2.39 0 3.23.05a4.33 4.33 0 0 1 1.49.27 2.67 2.67 0 0 1 1.52 1.52 4.32 4.32 0 0 1 .27 1.48c0 .85.05 1.1.05 3.24s0 2.39-.05 3.23a4.26 4.26 0 0 1-.27 1.48 2.49 2.49 0 0 1-.6.92 2.57 2.57 0 0 1-.92.6 4.51 4.51 0 0 1-1.48.28H4.77a4.44 4.44 0 0 1-1.48-.28 2.37 2.37 0 0 1-.92-.6 2.41 2.41 0 0 1-.6-.91 4.58 4.58 0 0 1-.28-1.49V4.77a4.52 4.52 0 0 1 .28-1.49 2.55 2.55 0 0 1 .59-.92 2.66 2.66 0 0 1 .92-.6 4.39 4.39 0 0 1 1.49-.27c.84 0 1.09-.05 3.23-.05ZM8 0C5.83 0 5.56 0 4.7.05a5.85 5.85 0 0 0-1.94.37 4.08 4.08 0 0 0-1.42.92 4.17 4.17 0 0 0-.92 1.42A5.61 5.61 0 0 0 .05 4.7C0 5.56 0 5.83 0 8s0 2.45.05 3.3a5.61 5.61 0 0 0 .37 1.94 4 4 0 0 0 .92 1.42 3.94 3.94 0 0 0 1.42.92A5.61 5.61 0 0 0 4.7 16H8c2.17 0 2.44 0 3.3-.05a5.61 5.61 0 0 0 1.94-.37 3.9 3.9 0 0 0 1.41-.92 3.81 3.81 0 0 0 .92-1.42A5.82 5.82 0 0 0 16 11.3V4.71a5.77 5.77 0 0 0-.38-1.94 3.63 3.63 0 0 0-.91-1.43 4 4 0 0 0-1.47-.92A6.12 6.12 0 0 0 11.3.05C10.45 0 10.17 0 8 0Zm0 3.89A4.11 4.11 0 1 0 12.11 8 4.11 4.11 0 0 0 8 3.89Zm0 6.78A2.67 2.67 0 1 1 10.67 8 2.67 2.67 0 0 1 8 10.67Zm4.27-7.9a1 1 0 1 0 1 1 1 1 0 0 0-1-1Z"/></symbol><symbol viewBox="0 0 16 14.02" id="i-share" xmlns="http://www.w3.org/2000/svg"><path d="M11.46 9.32a1.54 1.54 0 0 0-.17.19L5.74 7.25a1.93 1.93 0 0 0 0-.24 1.69 1.69 0 0 0 0-.23l5.55-2.26.17.18a2.59 2.59 0 0 0 3.76 0 2.82 2.82 0 0 0 0-3.89 2.59 2.59 0 0 0-3.76 0 2.78 2.78 0 0 0-.78 2.1L5.13 5.17A2.84 2.84 0 0 0 2.87 4 2.92 2.92 0 0 0 0 7a2.93 2.93 0 0 0 2.87 3 2.84 2.84 0 0 0 2.26-1.14l5.55 2.26a2.81 2.81 0 0 0 .78 2.1 2.6 2.6 0 0 0 3.76 0 2.83 2.83 0 0 0 0-3.9 2.59 2.59 0 0 0-3.76 0Z"/></symbol><symbol viewBox="0 0 32 26" id="i-twitter" xmlns="http://www.w3.org/2000/svg"><path d="M32 3.07a13.39 13.39 0 0 1-3.26 3.41v.85a18.69 18.69 0 0 1-.74 5.26 18.63 18.63 0 0 1-2.33 5.06 19.46 19.46 0 0 1-3.76 4.28 17.07 17.07 0 0 1-5.24 3 19.14 19.14 0 0 1-6.6 1.07A18.22 18.22 0 0 1 0 23.33a10.23 10.23 0 0 0 1.56.11 12.83 12.83 0 0 0 8.14-3.11A6.28 6.28 0 0 1 5.91 19a6.42 6.42 0 0 1-2.32-3.24 7.47 7.47 0 0 0 1.22.11 7.3 7.3 0 0 0 1.75-.22 6.35 6.35 0 0 1-3.76-2.24 6.39 6.39 0 0 1-1.5-4.19v-.07a6.24 6.24 0 0 0 3 .81 6.21 6.21 0 0 1-2.97-5.44 6.39 6.39 0 0 1 .89-3.19 18.46 18.46 0 0 0 6 4.76 18.71 18.71 0 0 0 7.54 2 6.58 6.58 0 0 1-.15-1.51 6.33 6.33 0 0 1 1.89-4.65A6.27 6.27 0 0 1 22.15 0 6.45 6.45 0 0 1 27 2.07 13.21 13.21 0 0 0 31.11.48a6.22 6.22 0 0 1-2.89 3.63A13.35 13.35 0 0 0 32 3.07Z"/></symbol></svg>